<svg xmlns="http://www.w3.org/2000/svg" version="1.1" xmlns:xlink="http://www.w3.org/1999/xlink" xmlns:svgjs="http://svgjs.dev/svgjs" width="308.7612359841165" height="304.91562" viewBox="0 0 1500 1500"><circle
         cx="10.5"
         cy="87.1"
         transform="rotate(-24.8 10.4 87.159)"
         id="circle13" /><g transform="matrix(0.6666666666666666,0,0,0.6666666666666666,249.39393939393938,438.5856950067477)"><svg viewBox="0 0 396 247" data-background-color="#ffffff" preserveAspectRatio="xMidYMid meet" height="935" width="1500" xmlns="http://www.w3.org/2000/svg" xmlns:xlink="http://www.w3.org/1999/xlink"><g id="tight-bounds" transform="matrix(1,0,0,1,0.2400000000000091,-0.09999999999999432)"><svg viewBox="0 0 395.52 247.2" height="247.2" width="395.52"><g><svg></svg></g><g><svg viewBox="0 0 395.52 247.2" height="247.2" width="395.52"><g transform="matrix(1,0,0,1,75.54432,90.66625981101127)"><svg viewBox="0 0 244.43135999999998 65.86748037797744" height="65.86748037797744" width="244.43135999999998"><g><svg viewBox="0 0 413.4882501877345 111.42362913565931" height="65.86748037797744" width="244.43135999999998"><g transform="matrix(1,0,0,1,169.0568901877345,15.399358295883452)"><svg viewBox="0 0 244.43135999999998 80.6249125438924" height="80.6249125438924" width="244.43135999999998"><g id="textblocktransform"><svg viewBox="0 0 244.43135999999998 80.6249125438924" height="80.6249125438924" width="244.43135999999998" id="textblock"><g><svg viewBox="0 0 244.43135999999998 80.6249125438924" height="80.6249125438924" width="244.43135999999998"><g transform="matrix(1,0,0,1,0,0)"><svg width="244.43135999999998" viewBox="2.5 -43.65 133.84 44.15" height="80.6249125438924" data-palette-color="#ff5858"><g class="wordmark-text-0" data-fill-palette-color="primary" id="text-0"><path d="M51.3-1.95L50.3 0.05 35.1 0.05 35.1-1.5 39.8-5.2 39.8-32.85 26.45 0.05 23.7 0.05 10.45-33.2 10.45-4.6 15.7-1.95 14.7 0.05 3 0.05 3-1.5 7.7-5.2 7.7-34.5 2.5-37.3 3.5-39.3 14.35-39.3 26.85-7.9 39.3-39.3 50.8-39.3 50.8-37.75 46.05-34.05 46.05-3.8 51.3-1.95ZM71.5-2L70.5 0 56.55 0 56.55-1.55 61-5.05 61-19.65 56.55-22.75 56.55-24.3 65.1-27.5 67-27.5 67-3.75 71.5-2ZM63.8-42.5Q65.3-42.5 66.27-41.4 67.25-40.3 67.25-38.65L67.25-38.65Q67.25-37.5 66.55-36.48 65.85-35.45 64.8-34.85 63.75-34.25 62.75-34.25L62.75-34.25Q61.25-34.25 60.27-35.35 59.3-36.45 59.3-38.1L59.3-38.1Q59.3-39.25 60-40.28 60.7-41.3 61.75-41.9 62.8-42.5 63.8-42.5L63.8-42.5ZM85.45-3.75L89.95-2 88.95 0 75 0 75-1.55 79.45-5.05 79.45-35.8 75-38.9 75-40.45 83.55-43.65 85.45-43.65 85.45-3.75ZM106.95-2L105.95 0 97.5 0 88.09-13.2 97.45-21.05 92.65-24.55 93.65-26.55 105.59-26.55 105.59-25 94-15.25 102.45-3.75 106.95-2ZM136.34-6.9L127.49 0.1Q125.49 0.5 122.69 0.5L122.69 0.5Q119.39 0.5 116.77-1.23 114.14-2.95 112.67-5.9 111.19-8.85 111.19-12.4L111.19-12.4Q111.19-16.25 113.54-19.63 115.89-23 119.42-25.03 122.94-27.05 126.24-27.05L126.24-27.05Q130.99-27.05 133.62-23.3 136.24-19.55 136.24-13.4L136.24-13.4 117.74-13.4Q118.04-9.15 120.07-6.45 122.09-3.75 125.59-3.75L125.59-3.75Q128.84-3.75 134.84-8.8L134.84-8.8 136.34-6.9ZM123.34-22.85Q117.94-22.85 117.69-15.45L117.69-15.45 129.39-15.45Q128.94-18.15 128.47-19.58 127.99-21 126.82-21.93 125.64-22.85 123.34-22.85L123.34-22.85Z" fill="#ff5858" data-fill-palette-color="primary"></path></g></svg></g></svg></g></svg></g></svg></g><g><svg viewBox="0 0 150.02328333402255 111.42362913565931" height="111.42362913565931" width="150.02328333402255"><g><svg xmlns="http://www.w3.org/2000/svg" xmlns:xlink="http://www.w3.org/1999/xlink" version="1.1" x="0" y="0" viewBox="7.5 18.435 85.001 63.131" enable-background="new 0 0 100 100" xml:space="preserve" height="111.42362913565931" width="150.02328333402255" class="icon-icon-0" data-fill-palette-color="accent" id="icon-0"><g fill="#ff5858" data-fill-palette-color="accent"><path d="M89.405 18.435H10.595c-1.706 0-3.095 1.389-3.095 3.095v56.941c0 1.706 1.389 3.095 3.095 3.095h78.811c1.707 0 3.095-1.389 3.095-3.095V77.14 32.027 21.529C92.5 19.823 91.112 18.435 89.405 18.435zM10.595 19.673h78.811c1.023 0 1.857 0.833 1.857 1.856v9.075c-0.068-0.01-0.136-0.021-0.207-0.021H8.951c-0.073 0-0.143 0.011-0.213 0.021v-9.076C8.738 20.506 9.571 19.673 10.595 19.673zM91.263 77.14c0 0.114-0.093 0.206-0.207 0.206H8.951c-0.113 0-0.206-0.092-0.206-0.206V32.027c0-0.113 0.093-0.206 0.206-0.206h82.104c0.114 0 0.207 0.093 0.207 0.206V77.14zM89.405 80.327H10.595c-0.992 0-1.798-0.784-1.848-1.764 0.067 0.01 0.135 0.021 0.204 0.021h82.104c0.068 0 0.133-0.011 0.197-0.02C91.202 79.544 90.396 80.327 89.405 80.327z" fill="#ff5858" data-fill-palette-color="accent"></path><path d="M28.178 27.787c1.45 0 2.63-1.18 2.63-2.63 0-1.451-1.18-2.631-2.63-2.631s-2.631 1.18-2.631 2.631C25.547 26.607 26.728 27.787 28.178 27.787zM28.178 23.765c0.768 0 1.393 0.624 1.393 1.393 0 0.768-0.625 1.393-1.393 1.393-0.769 0-1.393-0.625-1.393-1.393C26.785 24.389 27.409 23.765 28.178 23.765z" fill="#ff5858" data-fill-palette-color="accent"></path><path d="M21.458 27.787c1.451 0 2.631-1.18 2.631-2.63 0-1.451-1.18-2.631-2.631-2.631-1.45 0-2.63 1.18-2.63 2.631C18.828 26.607 20.008 27.787 21.458 27.787zM21.458 23.765c0.769 0 1.393 0.624 1.393 1.393 0 0.768-0.624 1.393-1.393 1.393-0.768 0-1.393-0.625-1.393-1.393C20.065 24.389 20.69 23.765 21.458 23.765z" fill="#ff5858" data-fill-palette-color="accent"></path><path d="M14.738 27.787c1.451 0 2.631-1.18 2.631-2.63 0-1.451-1.18-2.631-2.631-2.631-1.45 0-2.63 1.18-2.63 2.631C12.108 26.607 13.288 27.787 14.738 27.787zM14.738 23.765c0.769 0 1.393 0.624 1.393 1.393 0 0.768-0.624 1.393-1.393 1.393-0.768 0-1.393-0.625-1.393-1.393C13.346 24.389 13.971 23.765 14.738 23.765z" fill="#ff5858" data-fill-palette-color="accent"></path></g><path d="M26.598 65.915c-0.624 0-1.395-0.429-2.289-1.276-1.605-1.519-2.16-2.371-1.2-3.405l8.79-8.811-8.774-8.782c-0.676-0.676-0.57-1.195-0.401-1.57 0.242-0.544 0.814-1.117 1.479-1.781 0.829-0.829 1.542-1.542 2.241-1.542 0.342 0 0.679 0.172 1.033 0.526l11.769 11.755c0.311 0.254 0.521 0.659 0.564 1.134 0.048 0.537-0.134 1.152-0.452 1.533L27.53 65.514C27.243 65.787 26.941 65.915 26.598 65.915zM23.846 42.57c-0.009 0 0.027 0.068 0.154 0.194l9.211 9.221c0.241 0.242 0.241 0.633 0 0.875L24 62.093c-0.093 0.1-0.125 0.147-0.133 0.166 0.012 0.047 0.125 0.377 1.292 1.48 0.979 0.927 1.42 0.938 1.438 0.938v0.619l0.01-0.62c-0.001 0.001-0.001 0.001-0.001 0.001-0.003 0 0.02-0.012 0.061-0.05l11.777-11.767c0.061-0.077 0.151-0.357 0.131-0.589-0.013-0.145-0.063-0.246-0.162-0.328L26.601 40.148c-0.144-0.143-0.215-0.171-0.215-0.171-0.182 0.06-0.886 0.764-1.307 1.184-0.531 0.532-1.077 1.078-1.227 1.413C23.85 42.571 23.848 42.57 23.846 42.57z" fill="#ff5858" data-fill-palette-color="accent"></path><path d="M55.834 71.436H40.498c-1.594 0-1.92-1.234-1.92-3.088s0.326-3.088 1.92-3.088h15.336c1.503 0 1.787 1.085 1.787 3.088C57.621 70.396 57.346 71.436 55.834 71.436zM40.498 66.497c-0.366 0-0.683 0-0.683 1.851s0.316 1.851 0.683 1.851h15.336c0.354 0 0.55 0 0.55-1.851s-0.219-1.851-0.55-1.851H40.498z" fill="#ff5858" data-fill-palette-color="accent"></path></svg></g></svg></g></svg></g></svg></g><g><path d="M0 123.6c0-68.262 55.338-123.6 123.6-123.6 54.798 0 101.267 35.66 117.467 85.04l-2.265 0c-16.117-48.174-61.605-82.891-115.202-82.891-67.076 0-121.451 54.375-121.451 121.451 0 67.076 54.375 121.451 121.451 121.451 53.597 0 99.085-34.718 115.202-82.891h2.265c-16.2 49.38-62.669 85.04-117.467 85.04-68.262 0-123.6-55.338-123.6-123.6z" fill="#ff5858" stroke="transparent" data-fill-palette-color="tertiary"></path></g></svg></g><defs></defs></svg><rect width="395.52" height="247.2" fill="none" stroke="none" visibility="hidden"></rect></g></svg></g></svg>


